<?xml version="1.0" encoding="utf-8"?>
<!DOCTYPE svg PUBLIC "-//W3C//DTD SVG 1.1//EN" "http://www.w3.org/Graphics/SVG/1.1/DTD/svg11.dtd">
<svg
     version="1.1"
     id="no-aspect-ratio"
     xmlns="http://www.w3.org/2000/svg"
     xmlns:xlink="http://www.w3.org/1999/xlink"
     x="0px"
     y="0px"
     height="2055.55px"
     width="1440px"
     viewBox="0 0 2055.55 1440"
     preserveAspectRatio="xMinYMin slice">
         <desc>Login Image</desc>
             <g stroke="none" stroke-width="1" fill="none" fill-rule="evenodd" transform="translate(0.000000, -4.000000)">
        <g>
            <g>
                <rect fill="#FAFAFA" x="0" y="4"></rect>
                <polygon fill="#007CBB" opacity="0.4" style="mix-blend-mode: multiply;" points="1108.43 1443.63 1109.08 1443.63 443.44 777.74"></polygon>
                <polygon fill="#93D8CA" opacity="0.6" style="mix-blend-mode: overlay;" points="0.79 334.92 443.44 777.74 0.79 334.49"></polygon>
                <polygon fill="#A0DEEA" points="0.79 211.88 0.79 329.6 59.62 270.77"></polygon>
                <polygon fill="#96C7DF" points="160.65 169.74 0.79 9.73 0.79 211.88 90.27 301.46 59.62 270.77"></polygon>
                <polygon fill="#CDE3EE" points="503.77 1443.63 697.47 1443.63 803.74 1337.36 706.93 1240.43"></polygon>
                <polygon fill="#CDE3EE" points="158.33 691.15 0.79 848.72 0.79 1427.43 447.52 980.7"></polygon>
                <polygon fill="#CEDDE0" points="257.71 591.75 0.79 334.49 0.79 533.42 158.33 691.15"></polygon>
                <polygon fill="#A9C9D5" points="0.79 533.42 0.79 848.72 158.33 691.15"></polygon>
                <polygon fill="#AFD4E7" points="806.46 1140.89 546.94 881.28 447.52 980.7 706.93 1240.43"></polygon>
                <polygon fill="#8FC4DF" points="447.52 980.7 0.79 1427.43 0.79 1443.63 503.77 1443.63 706.93 1240.43"></polygon>
                <polygon fill="#70C0DC" points="608.23 819.99 546.94 881.28 806.46 1140.89 867.64 1079.7"></polygon>
                <polygon fill="#96C7DF" points="420.05 429.39 319.01 530.45 608.23 819.99 709.3 718.91"></polygon>
                <polygon fill="#69AFD4" points="709.3 718.91 608.23 819.99 867.64 1079.7 968.74 978.6"></polygon>
                <polygon fill="#8EB5BC" points="619.59 229.82 393.42 3.12 327.27 3.12 160.65 169.74 420.05 429.39"></polygon>
                <polygon fill="#8EB5BC" points="319.01 530.45 319.01 530.45 90.27 301.46"></polygon>
                <polygon fill="#7CB0C7" points="160.65 169.74 59.62 270.77 90.27 301.46 319.01 530.45 420.05 429.39"></polygon>
                <polygon fill="#84C4D2" points="59.62 270.77 0.79 329.6 0.79 334.49 257.71 591.75 319.01 530.45"></polygon>
                <polygon fill="#7CB0C7" points="537.55 3.12 393.42 3.12 619.59 229.82 691.74 157.66"></polygon>
                <polygon fill="#87D1DB" points="846.25 3.12 537.55 3.12 691.74 157.66"></polygon>
                <polygon fill="#CDE3EE" points="909.87 1443.63 850.19 1383.87 790.43 1443.63"></polygon>
                <polygon fill="#A0DEEA" points="319.01 530.45 257.71 591.75 443.44 777.74 546.94 881.28 608.23 819.99 867.64 1079.7 867.64 1079.7"></polygon>
                <polygon fill="#A0DEEA" points="867.64 1079.7 806.46 1140.89 903.31 1237.78 964.46 1176.63"></polygon>
                <polygon fill="#96C7DF" points="1065.57 1075.52 968.74 978.6 867.64 1079.7 964.46 1176.63"></polygon>
                <polygon fill="#96C7DF" points="964.46 1176.63 867.64 1079.7 867.64 1079.7 964.46 1176.63"></polygon>
                <polygon fill="#96C7DF" points="1010.92 1223.13 1231.16 1443.63 1010.92 1223.13"></polygon>
                <polygon fill="#96C7DF" points="1240.08 707.22 1167.9 779.4 1264.68 876.4 1336.87 804.22 1240.08 707.21"></polygon>
                <polygon fill="#96C7DF" points="980.83 447.39 691.74 157.66 619.59 229.82 908.66 519.56 980.83 447.39"></polygon>
                <polygon fill="#AFD4E7" points="709.3 718.91 968.74 978.6 1167.91 779.4 908.66 519.55"></polygon>
                <polygon fill="#69AFD4" points="980.83 447.39 908.66 519.55 1167.91 779.4 1240.08 707.21"></polygon>
                <polygon fill="#A0DEEA" points="1034.59 3.12 846.25 3.12 691.74 157.66 980.83 447.39 1229.75 198.47"></polygon>
                <polygon fill="#A0DEEA" points="1240.08 707.21 1336.87 804.22 1586.01 555.08 1489.14 458.12"></polygon>
                <polygon fill="#70C0DC" points="1229.75 198.47 980.83 447.39 1240.08 707.21 1489.14 458.12"></polygon>
                <polygon fill="#B7CED2" points="1292.22 1302.38 1433.32 1443.63 1830.61 1443.63 1491.18 1103.42"></polygon>
                <polygon fill="#A0DEEA" points="1010.92 1223.13 949.78 1284.27 1109.08 1443.63 1150.98 1443.63 1191.09 1403.51"></polygon>
                <polygon fill="#75B8C5" points="1150.98 1443.63 1231.16 1443.63 1191.09 1403.51"></polygon>
                <polygon fill="#96C7DF" points="1292.22 1302.38 1112.03 1122.02 1010.92 1223.13 1191.09 1403.51"></polygon>
                <polygon fill="#6EA4BC" points="1191.09 1403.51 1231.16 1443.63 1433.32 1443.63 1292.22 1302.38"></polygon>
                <polygon fill="#007CBB" opacity="0.4" style="mix-blend-mode: multiply;" points="1383.3 850.75 1311.12 922.94 1491.18 1103.42 1563.37 1031.23"></polygon>
                <polygon fill="#B7CED2" points="1491.18 1103.42 1830.61 1443.63 1974.86 1443.63 1563.37 1031.23"></polygon>
                <polygon fill="#6EA4BC" points="1491.18 1103.42 1830.61 1443.63 1974.86 1443.63 1563.37 1031.23"></polygon>
                <polygon fill="#A0DEEA" points="1812.65 781.95 1632.46 601.59 1383.3 850.75 1563.37 1031.23"></polygon>
                <polygon fill="#B7CED2" points="1563.37 1031.23 1974.86 1443.63 2054.45 1443.63 2054.45 1023.99 1812.65 781.95"></polygon>
                <polygon fill="#78CAD4" points="1563.37 1031.23 1974.86 1443.63 2054.45 1443.63 2054.45 1023.99 1812.65 781.95"></polygon>
                <polygon fill="#91C5E0" points="803.74 1337.36 850.19 1383.87 949.78 1284.27 903.31 1237.78"></polygon>
                <polygon fill="#91C5E0" points="1065.57 1075.52 1112.03 1122.02 1311.12 922.94 1264.69 876.4"></polygon>
                <polygon fill="#77B8D9" points="697.47 1443.63 790.43 1443.63 850.19 1383.87 803.74 1337.36"></polygon>
                <polygon fill="#A0DEEA" points="964.46 1176.63 903.31 1237.78 949.78 1284.27 1010.92 1223.13"></polygon>
                <polygon fill="#5DB5D6" points="964.46 1176.63 903.31 1237.78 949.78 1284.27 1010.92 1223.13"></polygon>
                <rect fill="#96C7DF" transform="translate(1038.247297, 1149.275429) rotate(-44.970000) translate(-1038.247297, -1149.275429) " x="966.752297" y="1116.41043" width="142.99" height="65.73"></rect>
                <rect fill="#57A8D0" transform="translate(1038.247297, 1149.275429) rotate(-44.970000) translate(-1038.247297, -1149.275429) " x="966.752297" y="1116.41043" width="142.99" height="65.73"></rect>
                <polygon fill="#96C7DF" points="1010.92 1223.13 1010.92 1223.13 964.46 1176.63 964.46 1176.63"></polygon>
                <polygon fill="#000000" opacity="0.42" points="1010.92 1223.13 1010.92 1223.13 964.46 1176.63 964.46 1176.63"></polygon>
                <polygon fill="#007CBB" opacity="0.4" style="mix-blend-mode: multiply;" points="1336.87 804.22 1264.69 876.4 1311.12 922.94 1383.3 850.75"></polygon>
                <polygon fill="#57A8D0" points="1336.87 804.22 1264.69 876.4 1311.12 922.94 1383.3 850.75"></polygon>
                <polygon fill="#93D8CA" opacity="0.6" style="mix-blend-mode: overlay;" points="1336.87 804.22 1383.3 850.75 1632.46 601.59 1586.01 555.08"></polygon>
                <polygon fill="#5DB5D6" points="1336.87 804.22 1383.3 850.75 1632.46 601.59 1586.01 555.08"></polygon>
                <polygon fill="#AFD3E6" points="2056 0.12 1645.49 0.12 1648.49 3.12 1944.07 3.12 1796.22 150.99 1893.12 247.97 2054.45 86.64 2054.45 179.6 1939.58 294.47 2056 411"></polygon>
                <polygon fill="#7AB9D9" points="1648.49 3.12 1796.22 150.99 1944.07 3.12"></polygon>
                <polygon fill="#66AED4" points="2054.45 86.64 1893.12 247.97 1939.58 294.47 2054.45 179.6"></polygon>
                <polygon fill="#B7CED2" points="1884.82 709.78 2054.45 879.57 2054.45 540.15"></polygon>
                <polygon fill="#AFD4E7" points="1489.14 458.12 1489.14 458.12 1371.13 339.99"></polygon>
                <polygon fill="#AFD4E7" points="1796.22 150.99 1648.49 3.12 1425.1 3.12 1301.91 126.31 1561.3 385.95"></polygon>
                <rect fill="#91C5E0" transform="translate(1798.954066, 388.798781) rotate(-44.970000) translate(-1798.954066, -388.798781) " x="1632.82407" y="355.933781" width="332.26" height="65.73"></rect>
                <polygon fill="#91C5E0" points="1586.01 555.08 1632.46 601.59 1632.46 601.59 1586.01 555.08"></polygon>
                <rect fill="#B3EAEE" transform="translate(1573.711577, 470.620263) rotate(-45.000000) translate(-1573.711577, -470.620263) " x="1522.68158" y="402.085263" width="102.06" height="137.07"></rect>
                <rect fill="#B3EAEE" transform="translate(1758.676758, 655.767120) rotate(-44.970000) translate(-1758.676758, -655.767120) " x="1707.64676" y="528.29212" width="102.06" height="254.95"></rect>
                <polygon fill="#B3EAEE" points="1301.91 126.31 1178.84 3.12 1034.59 3.12 1229.75 198.47"></polygon>
                <polygon fill="#83C0C8" points="1812.65 781.95 2054.45 1023.99 2054.45 879.57 1884.82 709.78"></polygon>
                <rect fill="#7DC6DC" transform="translate(1395.516901, 292.206519) rotate(-45.000000) translate(-1395.516901, -292.206519) " x="1344.4919" y="108.701519" width="102.05" height="367.01"></rect>
                <rect fill="#68B8D5" transform="translate(1645.313619, 542.249760) rotate(-45.000000) translate(-1645.313619, -542.249760) " x="1594.28362" y="509.38476" width="102.06" height="65.73"></rect>
            </g>
            <g transform="translate(0.000000, 3.000000)" stroke="#000000" opacity="0.15">
                <path d="M0.95,0.12 L0.95,840.12" id="Shape"></path>
            </g>
        </g>
    </g>
</svg>